<?xml version="1.0" encoding="UTF-8"?>
<svg width="24px" height="24px" viewBox="0 0 24 24" version="1.1" xmlns="http://www.w3.org/2000/svg" xmlns:xlink="http://www.w3.org/1999/xlink">
    <g stroke="none" stroke-width="1" fill="none" fill-rule="evenodd">
        <path d="M12,3c-4.97,0 -9,4.03 -9,9s4.03,9 9,9s9,-4.03 9,-9S16.97,3 12,3zM13.8,17.2c-0.22,0.13 -0.46,0.2 -0.7,0.2c-0.45,0 -0.89,-0.23 -1.15,-0.64l-2.39,-3.83c-0.19,-0.3 -0.26,-0.65 -0.2,-1c0.06,-0.35 0.26,-0.66 0.54,-0.85L13.89,8c0.58,-0.36 1.34,-0.19 1.7,0.39c0.36,0.58 0.19,1.34 -0.39,1.7L12.58,12l1.91,3.07C14.85,15.66 14.52,16.86 13.8,17.2z" fill="#FFFFFF" fill-rule="nonzero"></path>
    </g>
</svg>